<?xml version="1.0" standalone="no"?>
<!DOCTYPE svg PUBLIC "-//W3C//DTD SVG 20010904//EN"
 "http://www.w3.org/TR/2001/REC-SVG-20010904/DTD/svg10.dtd">
<svg version="1.0" xmlns="http://www.w3.org/2000/svg"
 width="512.000000pt" height="512.000000pt" viewBox="0 0 512.000000 512.000000"
 preserveAspectRatio="xMidYMid meet">
<metadata>
Created by potrace 1.11, written by Peter Selinger 2001-2013
</metadata>
<g transform="translate(0.000000,512.000000) scale(0.100000,-0.100000)"
fill="#000000" stroke="none">
<path d="M2384 5110 c-1036 -74 -1922 -761 -2248 -1743 -146 -437 -170 -915
-70 -1367 212 -956 978 -1722 1934 -1934 200 -44 346 -59 580 -58 412 1 750
79 1109 258 259 129 438 254 639 449 226 218 384 431 521 705 124 248 208 517
248 795 23 158 22 490 -1 665 -109 820 -578 1511 -1303 1919 -407 229 -934
345 -1409 311z m-84 -614 c247 -40 451 -169 584 -369 19 -30 41 -66 47 -81 8
-18 18 -26 28 -22 9 3 43 15 76 27 84 31 255 38 359 14 126 -27 227 -85 327
-184 68 -69 94 -103 127 -171 43 -88 72 -182 72 -235 0 -70 3 -72 103 -78 212
-13 411 -118 534 -282 108 -142 153 -278 153 -454 0 -133 -18 -210 -77 -331
-39 -80 -59 -108 -137 -185 -103 -103 -197 -159 -332 -196 -109 -31 -267 -31
-377 0 -134 37 -133 36 -140 138 -17 225 -102 397 -265 536 -71 60 -214 130
-309 151 -97 22 -876 23 -994 2 -150 -27 -276 -94 -389 -206 -140 -140 -200
-281 -208 -492 -5 -147 7 -133 -130 -148 -197 -22 -390 27 -566 144 -241 161
-378 417 -378 711 0 462 347 828 815 862 l87 6 0 44 c0 110 55 282 132 410 43
73 166 198 247 253 182 122 400 171 611 136z m308 -2123 l142 -6 0 -234 c0
-128 2 -233 4 -233 2 0 35 31 72 70 l69 69 110 -103 109 -103 -274 -291 c-150
-161 -276 -292 -280 -292 -4 0 -101 100 -216 223 -115 122 -238 253 -274 291
l-65 68 110 104 110 103 73 -72 72 -71 0 242 0 242 48 0 c26 0 111 -3 190 -7z"/>
</g>
</svg>
